<?xml version="1.0" encoding="UTF-8" standalone="no"?>
<!-- Created with Inkscape (http://www.inkscape.org/) -->
<svg
   xmlns:svg="http://www.w3.org/2000/svg"
   xmlns="http://www.w3.org/2000/svg"
   version="1.0"
   width="494"
   height="39"
   id="svg1935">
  <defs
     id="defs1938" />
  <path
     d="M 8.251435,9.2031512 L 486.83467,9.2031512"
     style="fill:none;fill-rule:evenodd;stroke:black;stroke-width:4.4000001;stroke-linecap:butt;stroke-linejoin:miter;stroke-miterlimit:4;stroke-dasharray:none;stroke-opacity:1"
     id="path2831" />
  <path
     d="M 58.676871,-0.51217514 L 58.676871,19.835303"
     style="fill:none;fill-rule:evenodd;stroke:black;stroke-width:4.75540733;stroke-linecap:butt;stroke-linejoin:miter;stroke-miterlimit:4;stroke-dasharray:none;stroke-opacity:1"
     id="path3718" />
  <path
     d="M 167.25984,-1.6435554 L 167.25984,18.703923"
     style="fill:none;fill-rule:evenodd;stroke:black;stroke-width:4.75540733;stroke-linecap:butt;stroke-linejoin:miter;stroke-miterlimit:4;stroke-dasharray:none;stroke-opacity:1"
     id="path5494" />
  <path
     d="M 275.20079,-0.9952614 L 275.20079,19.352217"
     style="fill:none;fill-rule:evenodd;stroke:black;stroke-width:4.75540733;stroke-linecap:butt;stroke-linejoin:miter;stroke-miterlimit:4;stroke-dasharray:none;stroke-opacity:1"
     id="path5496" />
  <path
     d="M 3.8652344,30.271474 L 0.7890625,30.271474 L 0.25,31.52538 C 0.11718576,31.833975 0.050779574,32.064443 0.05078125,32.216786 C 0.050779574,32.33788 0.1083967,32.444326 0.22363281,32.536122 C 0.33886522,32.627919 0.58788841,32.687489 0.97070313,32.714833 L 0.97070313,32.93163 L -1.53125,32.93163 L -1.53125,32.714833 C -1.1992192,32.656239 -0.98437564,32.580068 -0.88671875,32.486317 C -0.68750094,32.298818 -0.46679803,31.917959 -0.22460938,31.343739 L 2.5703125,24.804677 L 2.7753906,24.804677 L 5.5410156,31.414052 C 5.7636645,31.945303 5.9658127,32.290029 6.1474609,32.448231 C 6.3290936,32.606435 6.582023,32.695302 6.90625,32.714833 L 6.90625,32.93163 L 3.7714844,32.93163 L 3.7714844,32.714833 C 4.0878849,32.699208 4.3017519,32.646474 4.4130859,32.55663 C 4.5244079,32.466787 4.5800719,32.357412 4.5800781,32.228505 C 4.5800719,32.056631 4.501947,31.785147 4.3457031,31.414052 L 3.8652344,30.271474 z M 3.7011719,29.83788 L 2.3535156,26.626942 L 0.97070313,29.83788 L 3.7011719,29.83788 z "
     transform="matrix(1.757823,0,0,1.757823,2.781152,-19.44585)"
     id="flowRoot5498" />
  <path
     d="M 57.074219,26.939442 C 57.624994,27.056634 58.037103,27.244134 58.310547,27.501942 C 58.689446,27.86132 58.878899,28.300773 58.878906,28.820302 C 58.878899,29.214835 58.753899,29.592764 58.503906,29.954091 C 58.2539,30.31542 57.911126,30.579091 57.475586,30.745106 C 57.040034,30.911122 56.374995,30.99413 55.480469,30.99413 L 51.730469,30.99413 L 51.730469,30.777333 L 52.029297,30.777333 C 52.361327,30.777333 52.599608,30.671865 52.744141,30.460927 C 52.833983,30.324209 52.878905,30.033193 52.878906,29.58788 L 52.878906,24.455067 C 52.878905,23.962887 52.822264,23.65234 52.708984,23.523427 C 52.55664,23.351559 52.330077,23.265622 52.029297,23.265614 L 51.730469,23.265614 L 51.730469,23.048817 L 55.164063,23.048817 C 55.804683,23.048825 56.318355,23.0957 56.705078,23.189442 C 57.29101,23.330075 57.738275,23.579098 58.046875,23.936513 C 58.355462,24.293941 58.509759,24.705074 58.509766,25.169911 C 58.509759,25.568354 58.388665,25.924799 58.146484,26.239247 C 57.904291,26.553705 57.546869,26.787103 57.074219,26.939442 L 57.074219,26.939442 z M 54.003906,26.623036 C 54.148435,26.650384 54.313474,26.670892 54.499023,26.68456 C 54.684567,26.698236 54.888669,26.705072 55.111328,26.705067 C 55.681636,26.705072 56.110347,26.643548 56.397461,26.520497 C 56.684565,26.397455 56.904292,26.208978 57.056641,25.955067 C 57.208979,25.701166 57.28515,25.423823 57.285156,25.123036 C 57.28515,24.658199 57.095698,24.261715 56.716797,23.933583 C 56.337886,23.605465 55.785152,23.441403 55.058594,23.441395 C 54.667966,23.441403 54.316403,23.484372 54.003906,23.570302 L 54.003906,26.623036 z M 54.003906,30.419911 C 54.457028,30.52538 54.904294,30.578115 55.345703,30.578114 C 56.05273,30.578115 56.591792,30.418935 56.962891,30.100575 C 57.333979,29.782217 57.519525,29.388663 57.519531,28.919911 C 57.519525,28.61132 57.435541,28.314445 57.267578,28.029286 C 57.099604,27.744133 56.826167,27.519524 56.447266,27.355458 C 56.068355,27.191399 55.599605,27.109368 55.041016,27.109364 C 54.798825,27.109368 54.591794,27.113274 54.419922,27.121083 C 54.248044,27.128899 54.109372,27.142571 54.003906,27.162099 L 54.003906,30.419911 z "
     transform="matrix(1.605037,0,0,1.605037,-29.1067,-12.46593)"
     style="font-family:Times New Roman"
     id="flowRoot5506" />
  <path
     d="M 142.72461,17.992177 L 142.90625,20.693349 L 142.72461,20.693349 C 142.48241,19.884761 142.13671,19.30273 141.6875,18.947255 C 141.23828,18.591794 140.69921,18.414059 140.07031,18.414052 C 139.54296,18.414059 139.0664,18.547848 138.64063,18.815419 C 138.21484,19.083004 137.87988,19.509761 137.63574,20.095692 C 137.3916,20.681635 137.26953,21.41015 137.26953,22.281239 C 137.26953,22.999992 137.38476,23.623039 137.61523,24.15038 C 137.8457,24.677725 138.19238,25.082021 138.65527,25.36327 C 139.11816,25.644521 139.64648,25.785146 140.24023,25.785145 C 140.75585,25.785146 141.21093,25.674794 141.60547,25.454091 C 141.99999,25.233389 142.43359,24.794912 142.90625,24.138661 L 143.08789,24.255849 C 142.68945,24.962881 142.2246,25.480459 141.69336,25.808583 C 141.1621,26.136708 140.53124,26.30077 139.80078,26.30077 C 138.48437,26.30077 137.46484,25.81249 136.74219,24.835927 C 136.20312,24.109366 135.93359,23.253898 135.93359,22.26952 C 135.93359,21.476556 136.11133,20.748041 136.4668,20.083974 C 136.82226,19.419918 137.31152,18.90527 137.93457,18.540028 C 138.55761,18.174802 139.23828,17.992185 139.97656,17.992177 C 140.55078,17.992185 141.11718,18.13281 141.67578,18.414052 C 141.83984,18.499997 141.95702,18.542966 142.02734,18.542958 C 142.13281,18.542966 142.2246,18.505856 142.30273,18.43163 C 142.40429,18.326169 142.47656,18.179685 142.51953,17.992177 L 142.72461,17.992177 z "
     transform="matrix(1.67962,0,0,1.67962,-67.09976,-6.393201)"
     style="font-family:Times New Roman"
     id="flowRoot5514" />
  <path
     d="M 204.08008,36.49413 L 204.08008,36.277333 L 204.37891,36.277333 C 204.71484,36.277333 204.95312,36.169911 205.09375,35.955067 C 205.17969,35.826162 205.22265,35.5371 205.22266,35.08788 L 205.22266,29.955067 C 205.22265,29.458981 205.16797,29.148434 205.05859,29.023427 C 204.90625,28.851559 204.67969,28.765622 204.37891,28.765614 L 204.08008,28.765614 L 204.08008,28.548817 L 207.31445,28.548817 C 208.50195,28.548825 209.40527,28.683591 210.02441,28.953114 C 210.64355,29.222653 211.14159,29.671871 211.51855,30.30077 C 211.8955,30.929682 212.08398,31.656244 212.08398,32.480458 C 212.08398,33.58593 211.74804,34.509757 211.07617,35.251942 C 210.32226,36.080068 209.17382,36.49413 207.63086,36.49413 L 204.08008,36.49413 z M 206.34766,35.919911 C 206.84375,36.029287 207.25976,36.083974 207.5957,36.083974 C 208.50195,36.083974 209.2539,35.765615 209.85156,35.128895 C 210.44921,34.492179 210.74804,33.628898 210.74805,32.539052 C 210.74804,31.441401 210.44921,30.576167 209.85156,29.943349 C 209.2539,29.310543 208.48632,28.994137 207.54883,28.99413 C 207.19726,28.994137 206.79687,29.050778 206.34766,29.164052 L 206.34766,35.919911 z "
     transform="matrix(1.728975,0,0,1.728975,-83.61568,-25.34942)"
     style="font-family:Times New Roman"
     id="flowRoot5522" />
  <path
     d="M 397.63281,25.732411 L 397.63281,28.873036 L 399.37891,28.873036 C 399.83203,28.87304 400.13476,28.804681 400.28711,28.667958 C 400.49023,28.488275 400.60351,28.171869 400.62695,27.718739 L 400.84375,27.718739 L 400.84375,30.484364 L 400.62695,30.484364 C 400.57226,30.097649 400.51757,29.849602 400.46289,29.740224 C 400.39257,29.603508 400.27734,29.496087 400.11719,29.417958 C 399.95703,29.339837 399.71093,29.300774 399.37891,29.30077 L 397.63281,29.30077 L 397.63281,31.919911 C 397.63281,32.271475 397.64843,32.485342 397.67969,32.561513 C 397.71093,32.637685 397.76562,32.698232 397.84375,32.743153 C 397.92187,32.788076 398.07031,32.810537 398.28906,32.810536 L 399.63672,32.810536 C 400.08593,32.810537 400.4121,32.779287 400.61523,32.716786 C 400.81835,32.654287 401.01367,32.53124 401.20117,32.347645 C 401.44335,32.105459 401.6914,31.740225 401.94531,31.251942 L 402.17969,31.251942 L 401.49414,33.24413 L 395.37109,33.24413 L 395.37109,33.027333 L 395.65234,33.027333 C 395.83984,33.027333 396.01758,32.982411 396.18555,32.892567 C 396.31055,32.830068 396.39551,32.736318 396.44043,32.611317 C 396.48535,32.486318 396.50781,32.230459 396.50781,31.843739 L 396.50781,26.68163 C 396.50781,26.177731 396.45703,25.867184 396.35547,25.749989 C 396.21484,25.593747 395.98047,25.515622 395.65234,25.515614 L 395.37109,25.515614 L 395.37109,25.298817 L 401.49414,25.298817 L 401.58203,27.039052 L 401.35352,27.039052 C 401.27148,26.62109 401.18066,26.33398 401.08105,26.177724 C 400.98144,26.021481 400.83398,25.90234 400.63867,25.820302 C 400.48242,25.761715 400.20703,25.732419 399.8125,25.732411 L 397.63281,25.732411 z "
     transform="matrix(1.646086,0,0,1.646086,-169.5445,-17.31763)"
     style="font-family:Times New Roman"
     id="flowRoot5530" />
</svg>
