<?xml version="1.0" standalone="no"?>
<!DOCTYPE svg PUBLIC "-//W3C//DTD SVG 20010904//EN"
 "http://www.w3.org/TR/2001/REC-SVG-20010904/DTD/svg10.dtd">
<svg version="1.0" xmlns="http://www.w3.org/2000/svg"
 width="512.000000pt" height="512.000000pt" viewBox="0 0 512.000000 512.000000"
 preserveAspectRatio="xMidYMid meet">
<metadata>
Created by potrace 1.11, written by Peter Selinger 2001-2013
</metadata>
<g transform="translate(0.000000,512.000000) scale(0.100000,-0.100000)"
fill="#000000" stroke="none">
<path d="M2677 4984 c-3 -3 -3 -12 0 -20 3 -8 0 -14 -6 -14 -6 0 -11 6 -11 13
0 9 -3 8 -9 -2 -5 -7 -14 -10 -20 -7 -6 4 -8 12 -5 18 4 7 2 8 -5 4 -6 -4 -9
-12 -6 -17 11 -16 -7 -10 -21 9 -10 12 -12 12 -9 2 4 -11 -2 -15 -19 -15 -13
0 -22 3 -20 6 2 4 -3 9 -11 12 -8 4 -12 1 -9 -6 3 -9 -8 -13 -36 -13 -22 0
-40 4 -40 10 0 6 -5 4 -10 -4 -9 -13 -10 -13 -10 0 0 13 -1 13 -10 0 -9 -13
-10 -13 -10 0 0 13 -1 13 -10 0 -9 -13 -10 -13 -10 0 0 11 -2 12 -8 2 -10 -16
-81 -22 -106 -10 -12 7 -16 7 -12 0 3 -6 2 -13 -4 -17 -5 -3 -10 -1 -10 6 0 8
-5 7 -17 -2 -13 -11 -17 -11 -20 -1 -3 6 -9 12 -14 12 -6 0 -8 -4 -5 -9 7 -11
-45 -22 -59 -13 -16 10 -36 11 -29 1 3 -5 11 -6 17 -3 7 4 9 4 5 -1 -11 -12
-70 -17 -64 -6 7 10 -9 8 -36 -4 -10 -4 -15 -12 -11 -19 4 -6 -2 -4 -12 4 -15
12 -17 12 -10 1 6 -11 3 -13 -13 -9 -12 4 -20 2 -16 -3 3 -5 0 -9 -5 -9 -6 0
-11 5 -11 11 0 6 -7 3 -16 -5 -19 -19 -31 -20 -37 -3 -3 7 -6 5 -6 -5 -1 -10
-6 -18 -12 -18 -5 0 -7 6 -4 13 4 6 1 5 -7 -4 -13 -16 -62 -34 -53 -19 7 11
-22 7 -32 -5 -4 -4 -2 -5 5 -1 6 4 12 2 12 -5 0 -6 -8 -9 -19 -6 -12 3 -22 -1
-26 -12 -6 -14 -8 -14 -22 4 -14 18 -15 18 -9 1 5 -15 2 -18 -18 -14 -17 4
-23 1 -19 -9 5 -12 -8 -18 -31 -14 -4 1 -14 -3 -21 -9 -7 -6 -19 -8 -28 -4 -8
3 -18 0 -23 -7 -5 -8 -3 -10 7 -4 10 6 11 5 4 -3 -17 -19 -88 -45 -80 -30 3 7
1 6 -7 -3 -21 -25 -109 -71 -125 -65 -9 4 -11 2 -7 -6 5 -8 2 -9 -9 -5 -10 4
-16 2 -14 -6 1 -7 -6 -11 -15 -11 -10 1 -16 -2 -13 -6 3 -5 1 -11 -5 -15 -5
-3 -10 -1 -10 6 0 13 -14 3 -16 -12 -3 -22 -5 -23 -14 -9 -8 13 -10 13 -10 -2
0 -9 -5 -20 -12 -24 -7 -4 -8 -3 -4 4 5 8 2 10 -8 6 -9 -3 -15 -9 -14 -12 2
-20 -3 -25 -12 -12 -8 13 -10 13 -10 -1 0 -20 -46 -53 -61 -44 -5 4 -8 2 -7
-3 3 -9 -54 -62 -66 -62 -4 0 -23 -16 -43 -35 -20 -20 -42 -34 -49 -31 -8 3
-11 0 -8 -8 3 -7 -5 -21 -17 -32 -13 -10 -19 -14 -16 -7 4 6 4 14 -1 17 -4 2
-9 -4 -9 -15 -2 -22 -23 -53 -31 -45 -2 3 -13 -6 -24 -19 -20 -26 -45 -35 -32
-12 4 7 3 8 -2 4 -5 -5 -9 -16 -9 -25 0 -10 -7 -16 -18 -16 -15 2 -16 -1 -5
-14 11 -13 10 -15 -3 -10 -9 3 -22 2 -30 -4 -11 -8 -10 -9 4 -4 9 3 17 1 17
-4 0 -9 -14 -14 -32 -12 -3 1 -12 -6 -20 -16 -12 -15 -11 -16 4 -3 10 7 18 9
18 3 0 -11 -23 -32 -54 -47 -11 -6 -21 -19 -21 -29 0 -9 -11 -24 -25 -32 -14
-9 -17 -13 -7 -10 14 5 12 -2 -10 -32 -31 -43 -50 -64 -38 -43 6 10 4 12 -4 7
-7 -5 -10 -15 -6 -24 5 -13 1 -12 -17 3 -13 11 -17 13 -11 5 15 -17 17 -44 3
-35 -5 3 -10 -4 -10 -15 0 -15 -5 -20 -14 -17 -10 4 -12 0 -9 -14 3 -11 0 -19
-6 -19 -7 0 -9 5 -5 12 4 7 3 8 -5 4 -9 -6 -9 -11 -1 -21 9 -10 7 -16 -8 -24
-11 -6 -22 -8 -26 -6 -3 3 -4 2 -1 -2 3 -3 -3 -15 -12 -26 -10 -11 -12 -17 -5
-13 18 11 15 -5 -5 -21 -10 -8 -12 -11 -5 -8 10 5 9 -1 -2 -24 -9 -17 -19 -31
-22 -31 -3 0 -2 5 2 12 4 7 3 8 -5 4 -9 -6 -9 -11 -1 -21 8 -10 7 -16 -7 -24
-10 -6 -14 -11 -9 -11 6 0 1 -7 -10 -16 -10 -8 -13 -13 -6 -9 7 4 4 -10 -9
-34 -12 -24 -26 -38 -32 -35 -9 5 -9 3 0 -6 14 -16 -3 -61 -22 -54 -6 3 -12
-2 -12 -10 0 -8 4 -13 9 -10 14 9 -15 -50 -31 -63 -8 -7 -10 -13 -4 -13 6 0 9
-9 6 -20 -3 -11 -10 -20 -15 -20 -5 0 -7 4 -4 8 3 5 -1 9 -9 9 -10 0 -12 -4
-5 -12 5 -7 6 -16 2 -20 -4 -5 -2 -5 4 -2 7 4 9 -2 6 -18 -4 -23 -5 -24 -21
-7 -9 10 -12 12 -7 5 4 -7 6 -20 2 -28 -3 -9 -2 -14 3 -11 4 3 6 -6 3 -19 -2
-14 -9 -25 -14 -25 -5 0 -7 4 -4 8 3 5 -1 9 -9 9 -11 0 -10 -5 2 -24 14 -21
14 -24 -7 -41 -18 -15 -20 -21 -10 -27 8 -5 11 -4 6 3 -3 6 -2 13 3 16 11 7 9
-13 -2 -31 -5 -7 -5 -17 -2 -23 3 -5 2 -10 -4 -10 -5 0 -12 6 -15 13 -2 6 -4
3 -3 -8 2 -11 6 -25 10 -31 3 -6 3 -14 0 -18 -4 -4 -8 -12 -9 -19 -1 -7 -5
-30 -9 -52 -4 -22 -8 -55 -10 -73 -2 -19 -10 -41 -17 -50 -11 -13 -11 -14 1
-7 8 5 12 4 8 -1 -3 -5 -8 -38 -12 -74 -4 -36 -12 -68 -18 -72 -9 -6 -9 -8 1
-8 19 0 14 -30 -5 -31 -15 0 -15 -2 -3 -7 21 -10 22 -52 1 -52 -14 -1 -13 -2
2 -11 18 -10 18 -11 0 -26 -10 -8 -13 -12 -6 -9 6 4 14 2 18 -4 3 -5 -2 -10
-12 -10 -11 0 -14 -3 -7 -8 14 -9 27 -45 14 -37 -6 3 -10 2 -10 -4 0 -5 6 -12
13 -14 9 -4 8 -6 -2 -6 -11 -1 -11 -4 0 -18 12 -15 12 -16 -3 -10 -12 4 -15 2
-11 -8 3 -8 10 -12 17 -8 6 4 5 -1 -3 -10 -7 -9 -9 -17 -4 -17 5 0 10 -13 11
-30 1 -19 -2 -30 -10 -30 -10 0 -10 -2 -2 -8 15 -9 21 -63 10 -81 -6 -10 -5
-12 2 -7 7 4 12 1 12 -8 0 -10 -6 -13 -17 -9 -15 5 -14 3 2 -10 15 -13 17 -17
5 -17 -10 -1 -9 -4 5 -10 13 -6 15 -9 5 -9 -13 -1 -13 -2 0 -11 13 -8 13 -10
1 -10 -11 0 -9 -4 5 -15 18 -13 18 -14 1 -15 -10 0 -15 -5 -12 -10 4 -6 12 -7
18 -4 7 4 9 4 5 0 -4 -5 -2 -20 3 -34 8 -22 8 -23 -6 -12 -13 11 -14 10 -9 -4
3 -9 10 -16 14 -16 4 0 11 -7 14 -16 5 -13 4 -14 -7 -6 -10 9 -14 8 -14 -3 0
-8 6 -15 14 -15 7 0 13 -5 13 -11 0 -5 -4 -8 -8 -5 -11 7 -8 -31 3 -41 4 -5 5
-3 1 4 -3 6 -3 14 2 17 12 7 12 -26 0 -41 -6 -7 -4 -14 3 -19 8 -5 9 -3 4 6
-5 9 -4 11 4 6 6 -4 8 -12 5 -18 -4 -6 -2 -13 4 -17 6 -3 13 -20 16 -36 2 -17
5 -31 6 -32 7 -9 5 -30 -4 -42 -9 -12 -7 -13 6 -9 12 5 18 -1 24 -20 13 -47
12 -51 -4 -46 -10 3 -8 0 4 -6 11 -6 28 -31 37 -56 11 -30 12 -43 4 -38 -7 4
-2 -3 11 -15 26 -25 30 -40 5 -20 -15 13 -15 12 -3 -8 8 -12 18 -19 22 -17 4
3 8 -2 8 -11 0 -10 -5 -14 -12 -10 -7 4 -5 0 5 -8 20 -17 61 -87 50 -87 -3 0
1 -8 10 -18 13 -15 14 -21 4 -31 -9 -10 -9 -11 4 -6 10 4 19 0 23 -10 4 -11 2
-14 -7 -9 -6 4 0 -5 16 -21 15 -15 27 -33 27 -40 0 -7 6 -18 14 -24 8 -7 12
-22 9 -34 -3 -14 -2 -18 4 -10 6 9 12 7 21 -7 10 -17 9 -19 -6 -14 -9 3 -4 -2
11 -11 18 -10 26 -22 23 -31 -3 -8 1 -14 10 -14 11 0 14 -6 10 -16 -3 -8 -2
-12 4 -9 14 9 12 -9 -2 -24 -11 -11 -9 -12 9 -2 17 9 22 7 29 -7 4 -9 6 -20 6
-24 -1 -5 3 -8 8 -8 6 0 10 -7 10 -15 0 -9 11 -21 25 -27 18 -8 22 -14 15 -23
-8 -9 -1 -18 26 -34 23 -14 34 -27 30 -36 -3 -9 0 -12 8 -9 8 3 17 0 22 -7 4
-7 3 -10 -4 -5 -6 3 -14 2 -17 -4 -4 -6 -3 -10 2 -9 26 4 35 -1 24 -15 -10
-12 -8 -13 8 -9 13 3 23 0 27 -11 3 -9 10 -13 15 -10 5 3 9 -2 9 -11 0 -10 -5
-13 -12 -9 -7 5 -8 3 -4 -5 5 -7 15 -10 23 -7 11 5 13 2 9 -10 -6 -15 -4 -15
11 -3 10 7 15 10 11 5 -4 -4 6 -19 23 -33 16 -14 27 -29 24 -34 -4 -5 1 -6 10
-3 11 4 14 2 9 -9 -3 -10 3 -20 18 -27 22 -11 22 -10 4 4 -11 9 -15 16 -10 16
16 0 34 -22 34 -41 0 -9 7 -20 16 -23 15 -6 15 -4 3 11 -11 14 -9 13 13 -2 19
-14 26 -26 22 -40 -4 -17 -3 -18 6 -5 9 11 13 12 17 2 2 -6 10 -9 16 -5 6 4 8
0 4 -10 -4 -11 -2 -14 7 -11 8 3 17 0 22 -7 5 -8 3 -10 -6 -4 -9 6 -11 4 -6
-4 5 -7 14 -10 20 -8 16 6 27 -2 42 -28 7 -11 19 -19 28 -17 9 2 16 -1 16 -6
0 -5 13 -15 30 -22 16 -7 35 -19 42 -28 11 -13 11 -14 -2 -7 -9 5 -12 4 -7 -1
5 -5 16 -9 25 -9 9 0 16 -6 14 -14 -3 -12 -1 -12 14 0 16 12 17 12 12 -3 -9
-21 2 -31 19 -17 10 9 13 8 13 -1 0 -8 3 -10 7 -7 9 10 34 -14 26 -26 -3 -5
-1 -7 5 -4 13 9 44 -2 37 -13 -3 -5 4 -6 14 -3 11 3 27 -3 39 -15 11 -11 23
-18 26 -15 3 4 6 -2 7 -13 0 -10 3 -13 6 -6 6 14 33 16 33 2 0 -5 10 -10 23
-11 12 0 16 -3 10 -6 -19 -7 -15 -19 6 -19 11 0 18 4 15 7 -2 4 13 0 35 -9 22
-9 37 -20 35 -24 -3 -5 3 -7 13 -6 10 0 29 0 43 -1 23 -2 24 -3 5 -12 -17 -8
-15 -9 9 -5 21 3 36 -3 53 -20 26 -26 43 -33 23 -9 -9 11 -9 15 -1 15 6 0 14
-7 18 -16 4 -10 8 -12 12 -5 8 13 72 -7 84 -27 5 -8 14 -9 25 -3 20 10 45 3
36 -10 -3 -5 -1 -9 5 -9 5 0 12 6 14 13 4 8 8 8 14 2 4 -5 23 -11 42 -12 18
-1 39 -7 46 -13 9 -8 14 -8 17 0 2 6 11 8 21 5 9 -4 15 -10 12 -14 -2 -4 10
-5 27 -3 19 3 33 -1 39 -9 6 -10 9 -11 9 -1 0 6 5 12 11 12 5 0 7 -6 3 -12 -6
-10 -4 -10 7 -2 8 5 20 9 27 8 6 -1 17 -2 23 -3 5 0 7 -5 4 -11 -3 -5 -2 -10
4 -10 5 0 12 6 15 13 5 9 7 9 12 0 3 -7 10 -13 15 -13 6 0 7 5 4 10 -3 6 1 10
9 10 9 0 16 -8 17 -17 0 -15 2 -15 9 2 5 11 9 16 9 10 1 -5 22 -9 48 -9 27 1
54 -3 62 -10 12 -8 13 -8 7 1 -10 17 46 17 63 0 10 -10 11 -9 6 3 -4 12 1 15
18 15 13 -1 28 -5 35 -9 7 -4 12 -2 12 3 0 6 4 11 10 11 5 0 7 -8 4 -17 -5
-17 -4 -17 9 0 10 12 17 14 22 8 4 -8 12 -8 26 0 28 15 61 20 54 8 -4 -5 -2
-9 4 -9 5 0 11 6 14 13 3 9 8 9 21 -2 15 -12 16 -12 10 5 -6 16 -5 17 7 6 14
-13 33 -17 25 -4 -5 8 19 14 72 16 17 0 32 4 32 9 0 4 5 7 11 7 5 0 8 -4 5 -8
-2 -4 4 -8 14 -8 10 0 17 3 14 7 -8 13 28 19 42 8 12 -10 13 -8 8 6 -6 15 -4
16 14 6 15 -8 23 -8 28 1 5 7 3 8 -6 3 -9 -5 -11 -4 -6 3 4 7 14 12 22 12 8 0
13 -4 10 -8 -3 -5 4 -8 15 -7 11 1 24 6 28 13 8 14 60 34 71 27 4 -3 10 1 13
9 3 9 16 13 31 12 14 -2 26 0 26 4 0 5 10 6 23 3 16 -3 18 -2 9 5 -11 7 -10
10 3 16 22 8 27 8 21 -2 -3 -5 5 -8 17 -7 12 1 23 7 23 13 3 25 5 27 14 12 8
-12 10 -12 10 5 1 19 1 19 14 2 12 -16 14 -16 20 -2 4 11 2 14 -6 9 -7 -5 -8
-3 -3 5 4 7 15 11 25 8 13 -3 17 0 13 9 -3 8 0 14 6 14 6 0 11 -4 11 -10 0 -5
4 -10 10 -10 5 0 6 8 3 17 -6 16 -4 16 22 -1 25 -16 28 -17 16 -2 -12 14 -12
19 -1 29 10 10 11 9 6 -3 -4 -8 -1 -7 7 3 11 14 16 15 20 5 3 -8 6 -6 6 6 1
16 3 16 17 6 12 -11 15 -11 12 1 -2 8 4 13 14 13 10 -1 16 3 15 9 -1 5 23 23
53 39 30 16 57 33 58 39 2 5 9 9 16 9 7 0 21 9 31 20 10 11 23 20 29 20 6 0 5
-4 -3 -9 -8 -5 -9 -11 -3 -15 6 -3 13 3 17 14 3 11 11 20 16 20 6 0 7 -6 3
-12 -4 -7 2 -5 14 6 12 10 19 22 17 26 -3 4 7 16 22 25 22 15 30 16 47 5 21
-13 21 -13 2 9 -19 21 -19 21 -1 15 11 -5 16 -4 12 3 -9 14 29 47 44 37 7 -4
10 -3 6 3 -8 12 27 46 36 36 4 -3 7 1 7 10 0 9 14 24 30 34 17 9 30 21 30 25
0 4 4 8 10 8 5 0 7 -8 4 -17 -5 -14 -4 -15 4 -4 6 8 8 19 6 26 -7 16 32 48 48
39 7 -4 10 -4 6 1 -8 9 42 52 55 47 5 -1 5 2 2 9 -5 7 -16 3 -33 -13 -15 -13
-4 2 23 33 45 51 77 77 59 47 -4 -7 -3 -8 4 -4 6 4 8 14 5 22 -4 11 0 15 13
12 18 -3 20 1 23 38 1 10 7 14 15 11 10 -4 13 -1 10 7 -3 7 3 22 13 32 10 11
14 13 8 4 -9 -13 -8 -13 7 -2 9 8 14 20 11 28 -3 9 2 14 16 14 12 0 21 5 21
11 0 5 -4 7 -10 4 -19 -12 -10 8 27 56 20 26 40 46 44 44 4 -3 5 3 2 13 -5 20
23 56 37 47 5 -3 11 -1 14 4 4 5 1 13 -5 17 -8 5 -9 3 -4 -6 5 -9 4 -11 -4 -6
-16 10 -2 29 16 21 12 -4 13 -2 5 8 -9 10 -5 24 17 59 16 26 27 49 24 52 -4 3
-1 6 5 6 5 0 12 -5 14 -12 3 -8 7 -6 11 5 3 9 1 19 -5 23 -7 5 -8 2 -3 -6 6
-9 4 -11 -5 -5 -10 6 -9 11 4 20 9 7 16 17 15 21 -2 16 13 54 23 54 5 0 6 -5
2 -12 -4 -7 -3 -8 5 -4 9 6 9 11 1 21 -8 10 -8 15 1 21 7 4 9 3 6 -3 -3 -5 1
-10 9 -10 10 0 11 4 4 11 -13 13 -13 46 1 46 5 0 7 -5 3 -12 -4 -6 -3 -8 3 -5
6 4 8 17 6 31 -3 13 1 27 8 31 8 6 10 4 4 -5 -5 -9 -4 -11 3 -6 9 5 9 13 2 27
-12 22 -1 25 20 6 12 -10 12 -9 2 4 -6 9 -8 20 -4 24 4 5 1 5 -5 1 -9 -5 -11
-2 -7 8 3 9 11 13 17 9 6 -4 7 -1 2 7 -4 7 -2 16 6 21 9 5 10 9 2 9 -15 0 6
61 26 74 10 6 10 10 2 16 -9 5 -9 13 0 34 9 19 15 23 20 14 5 -8 8 -5 6 9 0
12 -5 19 -10 16 -5 -3 -7 0 -5 8 3 8 12 13 19 11 11 -3 11 -1 2 9 -14 14 -6
42 10 32 5 -3 7 -1 3 5 -3 5 -3 12 1 15 5 2 2 2 -4 1 -16 -4 -17 22 -1 32 7 5
8 2 3 -7 -5 -8 -4 -10 0 -6 12 10 16 39 5 32 -13 -8 -3 34 12 53 10 12 10 14
1 8 -7 -4 -13 -3 -13 2 0 5 10 14 23 21 12 6 14 9 5 7 -10 -3 -18 -1 -18 4 0
6 6 10 13 10 8 0 7 3 -3 10 -13 8 -13 11 -1 22 11 11 13 11 6 -1 -6 -10 -4
-12 5 -6 10 6 9 11 -5 22 -17 12 -14 18 8 14 4 -1 3 8 -4 20 -9 18 -9 21 3 16
8 -3 15 1 15 9 0 7 -4 11 -8 9 -4 -3 -9 1 -11 8 -6 15 1 38 11 33 4 -3 8 5 8
17 2 17 0 19 -7 7 -8 -13 -10 -13 -10 1 0 9 8 20 18 24 16 6 16 7 -2 21 -11 8
-14 14 -8 14 10 0 10 5 1 23 -12 21 -11 21 6 7 17 -14 17 -14 7 7 -15 28 -15
36 1 27 6 -4 3 3 -8 16 l-20 23 25 -7 c14 -3 20 -3 13 0 -7 3 -9 13 -6 22 4
15 3 15 -6 2 -9 -12 -11 -11 -11 8 0 14 4 21 11 16 6 -3 4 5 -5 18 -9 14 -13
28 -9 32 12 12 12 36 0 36 -7 0 -4 5 5 11 9 5 15 16 12 24 -4 8 -11 12 -18 8
-6 -4 -4 2 4 12 9 11 10 16 3 11 -7 -4 -13 -3 -13 3 0 5 6 12 12 14 10 4 10 6
1 6 -7 1 -13 6 -13 12 0 5 5 7 10 4 6 -3 10 -1 10 4 0 6 -4 11 -9 11 -5 0 -11
9 -14 20 -3 11 0 20 5 20 6 0 5 6 -2 15 -10 12 -10 18 1 32 10 11 10 14 2 9
-7 -4 -13 -4 -14 1 0 4 -3 21 -5 36 -3 16 0 35 7 43 10 12 9 18 0 27 -10 9
-11 8 -6 -5 4 -10 3 -18 -3 -18 -12 0 -10 18 6 47 12 21 0 44 -15 29 -4 -3 -1
-6 5 -6 6 0 9 -7 5 -15 -11 -30 -23 2 -26 68 0 20 -5 37 -9 37 -4 0 -8 5 -8
11 0 5 4 8 8 5 4 -2 8 8 7 23 0 20 -4 27 -14 23 -9 -3 -12 -1 -7 6 4 7 2 12
-5 12 -6 0 -9 8 -6 20 3 11 2 20 -3 20 -13 0 -20 43 -9 56 7 9 4 16 -10 26
-11 8 -22 23 -24 34 -2 10 -8 28 -15 40 -8 16 -8 24 1 34 9 10 9 11 0 6 -14
-8 -22 4 -25 38 -1 14 -6 26 -10 26 -4 0 -8 5 -8 11 0 5 6 7 13 3 7 -4 9 -3 4
2 -5 5 -14 9 -19 9 -6 0 -13 6 -16 14 -3 8 0 11 5 8 5 -3 10 1 10 10 0 9 -9
18 -19 21 -18 4 -18 5 -1 26 10 11 11 15 3 9 -19 -18 -35 -16 -21 1 9 10 9 16
1 21 -6 4 -9 13 -7 19 3 7 -1 13 -9 13 -7 0 -10 -5 -7 -10 3 -6 1 -7 -5 -3 -7
4 -12 14 -12 22 0 9 -7 22 -15 30 -16 16 -9 48 8 37 6 -3 7 -1 3 6 -5 8 -12 9
-20 2 -19 -16 -41 26 -24 47 10 13 10 14 0 8 -19 -11 -45 13 -32 29 8 10 8 15
-1 21 -8 4 -9 3 -5 -4 4 -7 2 -12 -3 -12 -6 0 -11 9 -11 21 0 11 -4 17 -10 14
-5 -3 -10 3 -10 14 0 34 0 35 -21 57 -10 11 -17 24 -14 27 3 4 2 5 -1 2 -4 -2
-20 5 -36 16 -22 16 -26 24 -18 34 8 10 7 13 -3 11 -8 0 -30 19 -51 44 -20 25
-41 50 -46 57 -6 7 -10 17 -10 23 0 6 -5 8 -12 4 -7 -5 -9 -2 -5 9 6 15 -15
42 -25 32 -3 -3 -42 34 -88 81 -45 47 -79 80 -75 73 7 -12 5 -12 -6 -1 -11 11
-12 14 -1 21 11 7 10 10 -3 14 -9 4 -13 3 -10 -3 13 -21 -9 -9 -37 20 -15 17
-33 30 -39 30 -5 0 -7 5 -3 12 5 8 2 9 -9 5 -9 -3 -19 -1 -23 5 -4 6 -3 8 4 4
6 -3 14 -2 17 4 4 6 3 10 -2 9 -37 -6 -90 31 -76 54 4 8 1 8 -10 -1 -13 -12
-18 -10 -29 7 -7 12 -18 21 -25 21 -7 0 -16 8 -22 18 -5 9 -13 16 -18 15 -16
-5 -43 9 -43 21 0 8 -8 20 -17 27 -16 13 -17 12 -4 -4 13 -17 13 -17 -12 -6
-22 10 -25 15 -14 27 10 13 9 14 -7 5 -20 -11 -41 -4 -78 26 -10 8 -18 11 -18
7 0 -3 -12 1 -27 11 -14 9 -33 18 -41 19 -8 2 -22 11 -31 20 -15 17 -15 17 4
3 19 -13 19 -13 6 4 -9 12 -18 14 -24 8 -11 -11 -61 11 -86 38 -9 9 -12 11 -7
4 12 -18 1 -16 -18 3 -10 10 -16 11 -16 4 0 -7 -8 -4 -17 7 -10 10 -14 13 -9
6 6 -10 4 -12 -8 -7 -9 3 -16 10 -16 15 0 4 -6 6 -14 3 -8 -3 -17 0 -22 7 -5
8 -3 10 6 4 9 -6 11 -4 5 4 -5 9 -10 10 -18 2 -16 -16 -27 -13 -20 6 4 10 2
14 -5 9 -6 -3 -14 -2 -17 4 -5 8 -11 8 -20 0 -14 -11 -48 -3 -40 10 3 5 -4 6
-15 3 -13 -3 -20 0 -20 8 0 11 -2 11 -10 -1 -7 -11 -10 -11 -10 -2 0 7 -6 12
-12 11 -7 -1 -22 -1 -33 0 -17 1 -18 3 -5 11 8 5 10 10 5 10 -6 0 -16 -5 -23
-12 -9 -9 -12 -9 -12 0 0 6 -10 10 -22 9 -36 -2 -109 14 -103 23 3 5 1 11 -4
14 -5 4 -13 1 -17 -5 -5 -8 -3 -9 6 -4 8 5 11 4 6 -3 -9 -14 -52 2 -48 18 1 6
-2 9 -8 5 -6 -3 -8 -11 -5 -16 4 -5 1 -9 -4 -9 -6 0 -11 4 -11 9 0 5 -12 7
-27 5 -19 -4 -32 0 -42 13 -13 17 -13 17 -8 0 6 -15 2 -16 -21 -11 -15 3 -37
5 -49 5 -21 -1 -28 9 -24 32 1 9 -4 9 -12 1z m-627 -74 c0 -5 -5 -10 -11 -10
-5 0 -7 5 -4 10 3 6 8 10 11 10 2 0 4 -4 4 -10z m1215 -60 c3 -5 1 -10 -4 -10
-6 0 -11 5 -11 10 0 6 2 10 4 10 3 0 8 -4 11 -10z m1040 -670 c3 -5 1 -10 -4
-10 -6 0 -11 5 -11 10 0 6 2 10 4 10 3 0 8 -4 11 -10z m-3580 -80 c-3 -5 -11
-10 -16 -10 -6 0 -7 5 -4 10 3 6 11 10 16 10 6 0 7 -4 4 -10z m3770 -160 c16
-16 24 -30 19 -30 -6 0 -20 14 -32 30 -13 17 -21 30 -19 30 2 0 16 -13 32 -30z
m-3981 -135 c-4 -8 -11 -15 -16 -15 -6 0 -5 6 2 15 7 8 14 15 16 15 2 0 1 -7
-2 -15z m4171 -185 c3 -5 1 -10 -4 -10 -6 0 -11 5 -11 10 0 6 2 10 4 10 3 0 8
-4 11 -10z m-3970 -2600 c3 -6 -1 -7 -9 -4 -18 7 -21 14 -7 14 6 0 13 -4 16
-10z m3662 -5 c0 -8 -4 -12 -9 -9 -5 3 -6 10 -3 15 9 13 12 11 12 -6z m-457
-429 c0 -3 -4 -8 -10 -11 -5 -3 -10 -1 -10 4 0 6 5 11 10 11 6 0 10 -2 10 -4z
m-740 -356 c0 -5 -2 -10 -4 -10 -3 0 -8 5 -11 10 -3 6 -1 10 4 10 6 0 11 -4
11 -10z"/>
<path d="M2336 4963 c-6 -14 -5 -15 5 -6 7 7 10 15 7 18 -3 3 -9 -2 -12 -12z"/>
<path d="M2467 4969 c7 -7 15 -10 18 -7 3 3 -2 9 -12 12 -14 6 -15 5 -6 -5z"/>
<path d="M2284 4962 c4 -3 14 -7 22 -8 9 -1 13 0 10 4 -4 3 -14 7 -22 8 -9 1
-13 0 -10 -4z"/>
<path d="M2746 4958 c3 -5 10 -6 15 -3 13 9 11 12 -6 12 -8 0 -12 -4 -9 -9z"/>
<path d="M3460 4786 c0 -3 14 -12 30 -21 17 -9 30 -13 30 -11 0 3 -13 12 -30
21 -16 9 -30 13 -30 11z"/>
<path d="M1544 4755 c-18 -14 -18 -14 4 -8 12 3 22 9 22 14 0 12 -3 11 -26 -6z"/>
<path d="M3583 4743 c-7 -2 -13 -9 -13 -15 0 -7 5 -7 13 1 8 6 18 7 22 3 5 -4
5 -1 1 6 -4 6 -8 12 -9 11 -1 0 -8 -3 -14 -6z"/>
<path d="M1387 4719 c7 -7 15 -10 18 -7 3 3 -2 9 -12 12 -14 6 -15 5 -6 -5z"/>
<path d="M1440 4700 c-9 -6 -10 -10 -3 -10 6 0 15 5 18 10 8 12 4 12 -15 0z"/>
<path d="M3626 4698 c3 -5 10 -6 15 -3 13 9 11 12 -6 12 -8 0 -12 -4 -9 -9z"/>
<path d="M1400 4680 c-9 -6 -10 -10 -3 -10 6 0 15 5 18 10 8 12 4 12 -15 0z"/>
<path d="M3667 4679 c7 -7 15 -10 18 -7 3 3 -2 9 -12 12 -14 6 -15 5 -6 -5z"/>
<path d="M3810 4600 c0 -5 5 -10 11 -10 5 0 7 5 4 10 -3 6 -8 10 -11 10 -2 0
-4 -4 -4 -10z"/>
<path d="M3955 4511 c-6 -11 13 -26 22 -17 4 3 1 6 -6 6 -7 0 -9 5 -6 10 3 6
4 10 1 10 -3 0 -7 -4 -11 -9z"/>
<path d="M1082 4475 c-7 -8 -9 -15 -4 -15 5 0 15 7 22 15 16 19 -1 19 -18 0z"/>
<path d="M4159 4334 c15 -32 38 -48 47 -33 4 7 3 9 -4 5 -5 -3 -20 6 -32 21
-13 18 -17 20 -11 7z"/>
<path d="M896 4321 c-4 -5 -2 -12 3 -15 5 -4 12 -2 15 3 4 5 2 12 -3 15 -5 4
-12 2 -15 -3z"/>
<path d="M4230 4256 c0 -2 7 -9 15 -16 13 -11 14 -10 9 4 -5 14 -24 23 -24 12z"/>
<path d="M4275 4220 c3 -5 8 -10 11 -10 2 0 4 5 4 10 0 6 -5 10 -11 10 -5 0
-7 -4 -4 -10z"/>
<path d="M4370 4102 c6 -13 14 -21 18 -18 3 4 -2 14 -12 24 -18 16 -18 16 -6
-6z"/>
<path d="M4416 4047 c3 -10 9 -15 12 -12 3 3 0 11 -7 18 -10 9 -11 8 -5 -6z"/>
<path d="M610 3998 c0 -4 4 -8 9 -8 6 0 12 4 15 8 3 5 -1 9 -9 9 -8 0 -15 -4
-15 -9z"/>
<path d="M4447 3999 c7 -7 15 -10 18 -7 3 3 -2 9 -12 12 -14 6 -15 5 -6 -5z"/>
<path d="M470 3896 c0 -2 8 -10 18 -17 15 -13 16 -12 3 4 -13 16 -21 21 -21
13z"/>
<path d="M386 3742 c-3 -5 1 -9 9 -9 8 0 12 4 9 9 -3 4 -7 8 -9 8 -2 0 -6 -4
-9 -8z"/>
<path d="M4665 3700 c-3 -6 1 -7 9 -4 18 7 21 14 7 14 -6 0 -13 -4 -16 -10z"/>
<path d="M355 3539 c-4 -6 -5 -12 -2 -15 2 -3 7 2 10 11 7 17 1 20 -8 4z"/>
<path d="M4790 3390 c-9 -6 -10 -10 -3 -10 6 0 15 5 18 10 8 12 4 12 -15 0z"/>
<path d="M155 3120 c3 -5 8 -10 11 -10 2 0 4 5 4 10 0 6 -5 10 -11 10 -5 0 -7
-4 -4 -10z"/>
<path d="M4874 3066 c1 -8 5 -18 8 -22 4 -3 5 1 4 10 -1 8 -5 18 -8 22 -4 3
-5 -1 -4 -10z"/>
<path d="M160 3060 c-9 -6 -10 -10 -3 -10 6 0 15 5 18 10 8 12 4 12 -15 0z"/>
<path d="M175 2929 c-4 -6 -5 -12 -2 -15 2 -3 7 2 10 11 7 17 1 20 -8 4z"/>
<path d="M4900 2919 c0 -5 5 -7 10 -4 6 3 10 8 10 11 0 2 -4 4 -10 4 -5 0 -10
-5 -10 -11z"/>
<path d="M4905 2890 c-3 -6 1 -7 9 -4 18 7 21 14 7 14 -6 0 -13 -4 -16 -10z"/>
<path d="M4916 2842 c-3 -5 1 -9 9 -9 8 0 12 4 9 9 -3 4 -7 8 -9 8 -2 0 -6 -4
-9 -8z"/>
<path d="M150 2800 c0 -5 5 -10 11 -10 5 0 7 5 4 10 -3 6 -8 10 -11 10 -2 0
-4 -4 -4 -10z"/>
<path d="M4925 2800 c-3 -6 1 -7 9 -4 18 7 21 14 7 14 -6 0 -13 -4 -16 -10z"/>
<path d="M4927 2599 c7 -7 15 -10 18 -7 3 3 -2 9 -12 12 -14 6 -15 5 -6 -5z"/>
<path d="M147 2409 c4 -13 8 -18 11 -10 2 7 -1 18 -6 23 -8 8 -9 4 -5 -13z"/>
<path d="M226 1903 c-6 -14 -5 -15 5 -6 7 7 10 15 7 18 -3 3 -9 -2 -12 -12z"/>
<path d="M4815 1809 c-4 -6 -5 -12 -2 -15 2 -3 7 2 10 11 7 17 1 20 -8 4z"/>
<path d="M266 1638 c3 -5 10 -6 15 -3 13 9 11 12 -6 12 -8 0 -12 -4 -9 -9z"/>
<path d="M4815 1600 c-3 -5 -1 -10 4 -10 6 0 11 5 11 10 0 6 -2 10 -4 10 -3 0
-8 -4 -11 -10z"/>
<path d="M4700 1519 c0 -5 5 -7 10 -4 6 3 10 8 10 11 0 2 -4 4 -10 4 -5 0 -10
-5 -10 -11z"/>
<path d="M380 1501 c5 -11 15 -23 21 -27 6 -3 3 5 -6 20 -20 30 -30 35 -15 7z"/>
<path d="M4656 1418 c3 -5 10 -6 15 -3 13 9 11 12 -6 12 -8 0 -12 -4 -9 -9z"/>
<path d="M4632 1390 c-18 -29 -15 -38 4 -12 9 13 14 25 12 27 -2 2 -9 -5 -16
-15z"/>
<path d="M450 1360 c0 -5 5 -10 11 -10 5 0 7 5 4 10 -3 6 -8 10 -11 10 -2 0
-4 -4 -4 -10z"/>
<path d="M4565 1279 c-4 -6 -5 -12 -2 -15 2 -3 7 2 10 11 7 17 1 20 -8 4z"/>
<path d="M4513 1198 c-15 -20 -25 -38 -20 -38 3 0 12 11 21 25 17 26 16 35 -1
13z"/>
<path d="M610 1120 c0 -5 5 -10 11 -10 5 0 7 5 4 10 -3 6 -8 10 -11 10 -2 0
-4 -4 -4 -10z"/>
<path d="M630 999 c0 -5 5 -7 10 -4 6 3 10 8 10 11 0 2 -4 4 -10 4 -5 0 -10
-5 -10 -11z"/>
<path d="M717 979 c7 -7 15 -10 18 -7 3 3 -2 9 -12 12 -14 6 -15 5 -6 -5z"/>
<path d="M4311 927 c-13 -21 -12 -21 5 -5 10 10 16 20 13 22 -3 3 -11 -5 -18
-17z"/>
<path d="M4200 825 c-7 -9 -8 -15 -2 -15 5 0 12 7 16 15 3 8 4 15 2 15 -2 0
-9 -7 -16 -15z"/>
<path d="M4135 760 c-3 -5 -1 -10 4 -10 6 0 11 5 11 10 0 6 -2 10 -4 10 -3 0
-8 -4 -11 -10z"/>
<path d="M4110 740 c0 -5 5 -10 11 -10 5 0 7 5 4 10 -3 6 -8 10 -11 10 -2 0
-4 -4 -4 -10z"/>
<path d="M4070 700 c0 -5 5 -10 10 -10 6 0 10 5 10 10 0 6 -4 10 -10 10 -5 0
-10 -4 -10 -10z"/>
<path d="M4027 666 c-4 -10 -1 -13 8 -9 8 3 12 9 9 14 -7 12 -11 11 -17 -5z"/>
<path d="M3949 603 c-13 -16 -12 -17 4 -4 16 13 21 21 13 21 -2 0 -10 -8 -17
-17z"/>
<path d="M1130 600 c0 -5 5 -10 11 -10 5 0 7 5 4 10 -3 6 -8 10 -11 10 -2 0
-4 -4 -4 -10z"/>
<path d="M3829 523 c-13 -16 -12 -17 4 -4 16 13 21 21 13 21 -2 0 -10 -8 -17
-17z"/>
<path d="M1230 526 c0 -2 7 -7 16 -10 8 -3 12 -2 9 4 -6 10 -25 14 -25 6z"/>
<path d="M3795 500 c-3 -5 -1 -10 4 -10 6 0 11 5 11 10 0 6 -2 10 -4 10 -3 0
-8 -4 -11 -10z"/>
<path d="M3710 452 c-18 -15 -20 -19 -7 -19 10 0 15 3 12 5 -3 3 3 11 13 18 9
7 14 14 11 14 -4 0 -17 -8 -29 -18z"/>
<path d="M1375 440 c-3 -5 -1 -10 4 -10 6 0 11 5 11 10 0 6 -2 10 -4 10 -3 0
-8 -4 -11 -10z"/>
<path d="M1587 279 c7 -7 15 -10 18 -7 3 3 -2 9 -12 12 -14 6 -15 5 -6 -5z"/>
<path d="M1715 281 c-3 -5 -2 -12 3 -15 5 -3 9 1 9 9 0 17 -3 19 -12 6z"/>
<path d="M3309 257 c6 -8 7 -18 3 -22 -4 -5 -1 -5 6 -1 10 6 10 11 1 22 -6 8
-14 14 -16 14 -3 0 0 -6 6 -13z"/>
<path d="M1746 198 c3 -5 10 -6 15 -3 13 9 11 12 -6 12 -8 0 -12 -4 -9 -9z"/>
<path d="M2075 180 c3 -5 8 -10 11 -10 2 0 4 5 4 10 0 6 -5 10 -11 10 -5 0 -7
-4 -4 -10z"/>
<path d="M2948 173 c7 -3 16 -2 19 1 4 3 -2 6 -13 5 -11 0 -14 -3 -6 -6z"/>
<path d="M2910 159 c0 -5 5 -7 10 -4 6 3 10 8 10 11 0 2 -4 4 -10 4 -5 0 -10
-5 -10 -11z"/>
<path d="M2520 86 c0 -2 8 -10 18 -17 15 -13 16 -12 3 4 -13 16 -21 21 -21 13z"/>
</g>
</svg>
